<?xml version="1.0" encoding="utf-8"?>
<!-- Generator: Adobe Illustrator 16.0.0, SVG Export Plug-In . SVG Version: 6.00 Build 0)  -->
<!DOCTYPE svg PUBLIC "-//W3C//DTD SVG 1.1//EN" "http://www.w3.org/Graphics/SVG/1.1/DTD/svg11.dtd">
<svg version="1.1" id="Layer_1" xmlns="http://www.w3.org/2000/svg" xmlns:xlink="http://www.w3.org/1999/xlink" x="0px" y="0px"
	 width="56.352px" height="15px" viewBox="0 0 56.352 15" enable-background="new 0 0 56.352 15" xml:space="preserve">
<g>
	<g>
		<path fill="#EF4137" d="M11.028,2.588c-0.246-0.178-0.41-0.271-0.667-0.419c-0.467-0.17-0.967,0.078-1.125,0.549
			c0.021-0.07,0.488-1.324,0.521-1.432c0.184-0.502,0.722-0.662,1.116-0.518c1.661,0.835,3.698,2.701,4.089,5.843
			c-0.003,0.507-0.413,0.878-0.863,0.871c-0.169-0.002-0.277,0.003-0.561,0.002C13.521,5.249,12.373,3.564,11.028,2.588z"/>
		<linearGradient id="SVGID_1_" gradientUnits="userSpaceOnUse" x1="9.1948" y1="7.4849" x2="9.1948" y2="2.1157">
			<stop  offset="0.0049" style="stop-color:#EF4137"/>
			<stop  offset="0.4378" style="stop-color:#EF4137"/>
			<stop  offset="0.468" style="stop-color:#EF4137"/>
			<stop  offset="0.5901" style="stop-color:#E84035"/>
			<stop  offset="0.6962" style="stop-color:#DB3C31"/>
			<stop  offset="0.7958" style="stop-color:#C8362C"/>
			<stop  offset="0.8818" style="stop-color:#B22F26"/>
			<stop  offset="0.8985" style="stop-color:#B22F26"/>
			<stop  offset="1" style="stop-color:#B22F26"/>
		</linearGradient>
		<path fill="url(#SVGID_1_)" d="M10.889,2.49L9.277,6.918c0,0-0.167,0.548-0.81,0.567c-0.592,0-0.965,0-0.965,0
			s1.625-4.476,1.728-4.753c0.21-0.614,0.8-0.695,1.137-0.562C10.519,2.255,10.722,2.377,10.889,2.49z"/>
		<path fill="#F69321" d="M14.389,8.155c-0.371,0-8.582,0-8.582,0C5.361,8.163,4.724,8.317,4.241,8.972
			c-0.542,0.733-0.331,1.572-0.251,1.773c-0.085-0.311,0.014-0.666,0.229-0.865c0.174-0.16,0.385-0.246,0.6-0.246L14.04,9.63
			c0.529,0.002,0.771-0.443,0.802-0.54C14.916,8.774,14.99,8.179,15,7.92C14.76,8.131,14.549,8.155,14.389,8.155z"/>
		<path fill="#808184" d="M4.983,0.404C5.652,0.168,6.275,0.053,6.65,0.021c0,0-2.417,6.62-2.506,6.867
			C3.938,7.454,3.422,7.485,3.326,7.486c-0.102,0-0.966-0.001-0.966-0.001S4.774,0.85,4.818,0.728
			C4.872,0.577,4.9,0.511,4.983,0.404z"/>
		<path fill="#808184" d="M9.166,0.157c0,0-2.397,6.581-2.456,6.741C6.631,7.11,6.397,7.46,5.907,7.484c-0.28,0-0.985,0-0.985,0
			S7.417,0.629,7.446,0.57C7.523,0.33,7.774,0.05,8.161,0C8.471,0.019,8.901,0.099,9.166,0.157z"/>
		<g>
			<linearGradient id="SVGID_2_" gradientUnits="userSpaceOnUse" x1="5.8984" y1="9.624" x2="5.9086" y2="9.6299">
				<stop  offset="0.0345" style="stop-color:#983120"/>
				<stop  offset="0.0451" style="stop-color:#9C3621"/>
				<stop  offset="0.2474" style="stop-color:#F69321"/>
				<stop  offset="1" style="stop-color:#F69321"/>
			</linearGradient>
			<polygon fill="url(#SVGID_2_)" points="5.911,9.628 5.911,9.627 5.897,9.627 			"/>
			<linearGradient id="SVGID_3_" gradientUnits="userSpaceOnUse" x1="4.8115" y1="8.7822" x2="12.7335" y2="13.356">
				<stop  offset="0.0345" style="stop-color:#983120"/>
				<stop  offset="0.0451" style="stop-color:#9C3621"/>
				<stop  offset="0.2474" style="stop-color:#F69321"/>
				<stop  offset="1" style="stop-color:#F69321"/>
			</linearGradient>
			<path fill="url(#SVGID_3_)" d="M12.866,10.572c-0.601,0-7.035,0.001-7.035,0.001c-0.313,0-0.478-0.266-0.478-0.467
				c0-0.238,0.186-0.473,0.475-0.473H4.818c-0.271,0-0.469,0.119-0.613,0.258c-0.259,0.253-0.31,0.66-0.185,0.947
				c0.405,0.928,1.213,1.207,1.827,1.207c0.605,0,5.512,0.004,5.512,0.004c0.388,0.017,0.745,0.299,0.821,0.713
				c0.092,0.496-0.238,0.781-0.353,0.865c0.619-0.436,1.192-0.98,1.712-1.672C13.98,11.288,13.472,10.572,12.866,10.572z"/>
			<linearGradient id="SVGID_4_" gradientUnits="userSpaceOnUse" x1="4.1099" y1="10.8164" x2="4.1099" y2="10.8164">
				<stop  offset="0.0345" style="stop-color:#983120"/>
				<stop  offset="0.0451" style="stop-color:#9C3621"/>
				<stop  offset="0.2474" style="stop-color:#F69321"/>
				<stop  offset="1" style="stop-color:#F69321"/>
			</linearGradient>
			<path fill="url(#SVGID_4_)" d="M4.11,10.816"/>
		</g>
		<linearGradient id="SVGID_5_" gradientUnits="userSpaceOnUse" x1="2.0303" y1="13.0391" x2="9.8078" y2="8.5487">
			<stop  offset="0" style="stop-color:#F69321"/>
			<stop  offset="0.6995" style="stop-color:#F69321"/>
			<stop  offset="1" style="stop-color:#983120"/>
		</linearGradient>
		<path fill="url(#SVGID_5_)" d="M12.181,12.763c-0.062-0.364-0.357-0.654-0.741-0.705c-2.695,2.227-5.38,1.331-6.003,1.103
			c-1.126-0.414-2.086-1.124-2.789-2.087c-0.664-0.908-0.942-1.82-1.024-2.209c-0.066-0.328-0.36-0.729-0.919-0.708
			C0.565,8.163,0.314,8.2,0,7.927c0.069,1.296,0.513,2.48,0.962,3.261c1.456,2.529,3.919,3.727,6.294,3.807
			c0.192,0.013,1.208,0.022,2.196-0.25c1.055-0.29,1.856-0.748,2.387-1.123C11.911,13.571,12.271,13.28,12.181,12.763z"/>
		<path fill="#808184" d="M3.725,0.987c0,0-1.797,4.898-2.031,5.575c-0.161,0.47-0.25,0.571-0.226,1.12
			c-0.12-0.092-0.273-0.19-0.559-0.198c-0.391-0.01-0.6-0.227-0.691-0.348c-0.23-0.308-0.167-0.622-0.161-0.669
			C0.335,4.417,1.496,2.308,3.725,0.987z"/>
	</g>
	<g>
		<path fill="#808184" d="M27.904,14.132h-1.941V8.43h-5.841v5.702h-1.941V0.788h1.941V6.51h5.841V0.788h1.941V14.132z"/>
		<path fill="#808184" d="M40.328,14.132h-2.414l-4.748-5.135c-0.16-0.174-0.24-0.455-0.24-0.844c0-0.749,0.4-1.129,1.201-1.143
			h2.84c0.947,0,1.42-0.449,1.42-1.347V4.136c0-0.951-0.533-1.427-1.6-1.427h-4.021v11.423h-1.939V0.788h6.521
			c1.986,0,2.98,0.947,2.98,2.841V5.93c0,0.84-0.258,1.51-0.77,2.01c-0.514,0.5-1.191,0.75-2.031,0.75h-2.24L40.328,14.132z"/>
		<path fill="#808184" d="M56.352,14.132H54.49V3.549l-3.42,9.423c-0.334,0.92-0.801,1.381-1.4,1.381
			c-0.361,0-0.654-0.141-0.881-0.42c-0.133-0.16-0.279-0.461-0.439-0.9l-3.502-9.483v10.583h-1.859V2.429
			c0-0.521,0.146-0.947,0.439-1.28s0.699-0.5,1.221-0.5c0.787,0,1.326,0.42,1.619,1.26l3.381,9.523l3.441-9.525
			c0.307-0.839,0.84-1.258,1.602-1.258c0.533,0,0.943,0.173,1.23,0.52c0.285,0.347,0.43,0.792,0.43,1.338V14.132z"/>
	</g>
</g>
</svg>
