<?xml version="1.0" encoding="utf-8"?>
<!-- Generator: Adobe Illustrator 16.0.0, SVG Export Plug-In . SVG Version: 6.00 Build 0)  -->
<!DOCTYPE svg PUBLIC "-//W3C//DTD SVG 1.1//EN" "http://www.w3.org/Graphics/SVG/1.1/DTD/svg11.dtd">
<svg version="1.1" id="Layer_1" xmlns="http://www.w3.org/2000/svg" xmlns:xlink="http://www.w3.org/1999/xlink" x="0px" y="0px"
	 width="40px" height="40px" viewBox="0 0 40 40" enable-background="new 0 0 40 40" xml:space="preserve">
<g>
	<path fill="#EF4136" d="M29.409,6.904c-0.656-0.476-1.091-0.723-1.779-1.12c-1.245-0.454-2.58,0.206-3.002,1.465
		c0.057-0.185,1.304-3.534,1.391-3.818c0.491-1.34,1.925-1.768,2.977-1.383c4.429,2.227,9.861,7.203,10.906,15.584
		c-0.011,1.35-1.103,2.341-2.302,2.322c-0.453-0.008-0.738,0.007-1.498,0.004C36.06,13.997,32.997,9.504,29.409,6.904z"/>
	<linearGradient id="SVGID_1_" gradientUnits="userSpaceOnUse" x1="24.5225" y1="19.9595" x2="24.5225" y2="5.6406">
		<stop  offset="0.0049" style="stop-color:#EF4136"/>
		<stop  offset="0.4378" style="stop-color:#EF4136"/>
		<stop  offset="0.468" style="stop-color:#EF4136"/>
		<stop  offset="0.5725" style="stop-color:#EA3F35"/>
		<stop  offset="0.6632" style="stop-color:#E13D33"/>
		<stop  offset="0.7487" style="stop-color:#D4392F"/>
		<stop  offset="0.8307" style="stop-color:#C1332A"/>
		<stop  offset="0.8818" style="stop-color:#B22E25"/>
		<stop  offset="0.8985" style="stop-color:#B22E25"/>
		<stop  offset="1" style="stop-color:#B22E25"/>
	</linearGradient>
	<path fill="url(#SVGID_1_)" d="M29.041,6.638l-4.302,11.81c0,0-0.444,1.461-2.158,1.512c-1.581,0-2.577-0.001-2.577-0.001
		s4.334-11.935,4.608-12.674c0.56-1.636,2.133-1.852,3.031-1.498C28.05,6.013,28.591,6.336,29.041,6.638z"/>
	<path fill="#F7941E" d="M38.372,21.745c-0.989,0-22.887,0-22.887,0c-1.188,0.022-2.885,0.435-4.174,2.177
		c-1.447,1.956-0.886,4.193-0.672,4.729c-0.228-0.826,0.038-1.771,0.609-2.308c0.462-0.43,1.024-0.656,1.6-0.656L37.44,25.68
		c1.414,0.003,2.054-1.188,2.138-1.44c0.198-0.843,0.396-2.43,0.422-3.117C39.359,21.685,38.799,21.745,38.372,21.745z"/>
	<path fill="#808285" d="M13.289,1.077c1.784-0.63,3.447-0.936,4.446-1.022c0,0-6.442,17.652-6.68,18.31
		c-0.554,1.511-1.93,1.595-2.186,1.598c-0.272,0-2.576-0.003-2.576-0.003s6.437-17.693,6.554-18.021
		C12.992,1.538,13.07,1.361,13.289,1.077z"/>
	<path fill="#808285" d="M24.445,0.417c0,0-6.392,17.55-6.552,17.978c-0.211,0.565-0.831,1.498-2.141,1.562
		c-0.745,0-2.626,0-2.626,0s6.652-18.278,6.73-18.435C20.065,0.88,20.732,0.132,21.761,0C22.589,0.051,23.737,0.263,24.445,0.417z"
		/>
	<g>
		<linearGradient id="SVGID_2_" gradientUnits="userSpaceOnUse" x1="15.7334" y1="25.6631" x2="15.7588" y2="25.6777">
			<stop  offset="0.0345" style="stop-color:#972F1E"/>
			<stop  offset="0.0603" style="stop-color:#A23B20"/>
			<stop  offset="0.2474" style="stop-color:#F7941E"/>
			<stop  offset="1" style="stop-color:#F7941E"/>
		</linearGradient>
		<polygon fill="url(#SVGID_2_)" points="15.761,25.675 15.761,25.67 15.729,25.67 		"/>
		<linearGradient id="SVGID_3_" gradientUnits="userSpaceOnUse" x1="12.835" y1="23.418" x2="33.9596" y2="35.6143">
			<stop  offset="0.0345" style="stop-color:#972F1E"/>
			<stop  offset="0.0603" style="stop-color:#A23B20"/>
			<stop  offset="0.2474" style="stop-color:#F7941E"/>
			<stop  offset="1" style="stop-color:#F7941E"/>
		</linearGradient>
		<path fill="url(#SVGID_3_)" d="M34.313,28.19c-1.604,0-18.762,0.003-18.762,0.003c-0.832,0-1.272-0.706-1.272-1.243
			c0-0.636,0.496-1.265,1.268-1.265l-2.698,0.002c-0.723,0-1.25,0.318-1.633,0.692c-0.691,0.672-0.827,1.755-0.493,2.521
			c1.08,2.473,3.234,3.222,4.872,3.222c1.616,0,14.699,0.009,14.699,0.009c1.036,0.046,1.987,0.797,2.19,1.9
			c0.242,1.323-0.638,2.084-0.943,2.31c1.651-1.159,3.181-2.614,4.565-4.458C37.283,30.1,35.925,28.19,34.313,28.19z"/>
		<linearGradient id="SVGID_4_" gradientUnits="userSpaceOnUse" x1="10.9619" y1="28.8418" x2="10.9619" y2="28.8418">
			<stop  offset="0.0345" style="stop-color:#972F1E"/>
			<stop  offset="0.0603" style="stop-color:#A23B20"/>
			<stop  offset="0.2474" style="stop-color:#F7941E"/>
			<stop  offset="1" style="stop-color:#F7941E"/>
		</linearGradient>
		<path fill="url(#SVGID_4_)" d="M10.962,28.842"/>
	</g>
	<linearGradient id="SVGID_5_" gradientUnits="userSpaceOnUse" x1="5.415" y1="34.7666" x2="26.1555" y2="22.7921">
		<stop  offset="0" style="stop-color:#F7941E"/>
		<stop  offset="0.6995" style="stop-color:#F7941E"/>
		<stop  offset="1" style="stop-color:#972F1E"/>
	</linearGradient>
	<path fill="url(#SVGID_5_)" d="M32.484,34.031c-0.169-0.972-0.953-1.742-1.979-1.88c-7.186,5.938-14.345,3.55-16.008,2.939
		c-3.004-1.104-5.563-2.997-7.439-5.563c-1.77-2.424-2.509-4.854-2.73-5.893c-0.173-0.876-0.958-1.938-2.449-1.884
		C1.51,21.768,0.839,21.865,0,21.139c0.187,3.457,1.369,6.613,2.567,8.695c3.882,6.744,10.452,9.939,16.784,10.152
		c0.515,0.035,3.224,0.059,5.857-0.666c2.813-0.776,4.95-1.994,6.366-2.998C31.763,36.188,32.722,35.412,32.484,34.031z"/>
	<path fill="#808285" d="M9.933,2.633c0,0-4.792,13.06-5.416,14.868c-0.431,1.251-0.668,1.523-0.602,2.985
		c-0.321-0.245-0.729-0.506-1.489-0.526c-1.042-0.026-1.601-0.604-1.843-0.93c-0.612-0.821-0.448-1.655-0.43-1.784
		C0.896,11.78,3.991,6.154,9.933,2.633z"/>
</g>
</svg>
